<?xml version="1.0" encoding="utf-8"?>
<!-- Generator: Adobe Illustrator 25.0.0, SVG Export Plug-In . SVG Version: 6.00 Build 0)  -->
<svg version="1.1" id="Layer_1" xmlns="http://www.w3.org/2000/svg" xmlns:xlink="http://www.w3.org/1999/xlink" x="0px" y="0px"
	 viewBox="0 0 1683.78 2383.94" style="enable-background:new 0 0 1683.78 2383.94;" xml:space="preserve">
<style type="text/css">
	.st0{fill:none;stroke:#000000;stroke-miterlimit:10;}
	.st1{font-family:'MyriadPro-Regular';}
	.st2{font-size:91.9995px;}
</style>
<path class="st0" d="M-1112.81,1103.68c12.34-58.09,24.12-114.62,57.09-166.44c9.42-14.13,21.2-21.2,32.41-31.3"/>
<path class="st0" d="M-638.61,1085.24c-0.18-32.59-0.18-65.57-9.61-96.19c-4.71-16.49-11.78-32.98-21.2-47.11
	c-11.78-14.13-25.91-23.55-37.69-35.33c4.71-2.36,7.07-4.71,9.42-7.07c68.31-16.49,127.2-58.89,160.17-120.13
	c11.78-23.55,11.78-49.47,14.13-75.38c2.36-9.42,11.78-16.49,14.13-25.91c2.36-23.55-4.71-47.11-23.55-61.24
	c-23.55,2.36-37.69-14.13-51.82-30.62c-16.49-23.55-28.27-44.75-35.33-73.02c-7.07-40.04-2.36-80.09-7.07-120.13
	c-9.42-65.95-58.89-108.35-113.06-141.33c-30.62-16.49-65.95-23.55-98.93-32.98c2.36-44.75-16.49-94.22-61.24-113.06
	c-80.09-11.78-136.62,70.66-148.4,141.33c-2.36,9.42-7.07,16.49-11.78,21.2c-124.84,103.64-148.4,273.24-127.2,423.99
	c14.13,87.15,54.18,176.66,143.69,207.28c7.07,2.36,14.13,2.36,20.63,6.39"/>
<path class="st0" d="M-988.11,1684.27c20.19-5.8,40.39-11.61,60.58-17.41"/>
<path class="st0" d="M-1131.92,1258.06c-81.61,25.44-164.05,46.64-251.21,65.48c-40.04,11.78-77.73,21.2-117.77,35.33
	c-16.49,7.07-35.33,11.78-51.82,21.2c-35.33,18.84-65.95,40.04-94.22,68.31c-18.84,21.2-32.98,47.11-42.4,73.02
	c-23.55,68.31-16.49,141.33,25.91,202.57c32.98,44.75,77.73,75.38,134.26,84.8c91.86,14.13,174.31-14.13,259.1-40.04
	c11.78-2.36,200.22-56.53,281.95-84.46"/>
<path class="st0" d="M-930.88,2032.54c16.4-26.85,30.28-48.56,40.04-63.6c23.27-35.85,27.64-40.72,47.11-71.84
	c11.44-18.29,16.56-27.2,29.41-46.88c11.02-16.88,20.45-30.51,26.85-39.61c14.11,10.38-1.01,1.56,0,0
	c181.59,133.16,242.83,177.76,261.73,191.3c4.47,3.2,22.06,15.77,45.33,33.18c12.54,9.38,22.43,16.95,27.69,20.99
	c3.69,2.42,7.39,4.85,11.08,7.27"/>
<path class="st0" d="M-1251.66,2019.3c-4.13,12.19,4.04,23.91,12.22,32.09c2.57,2.57,3.84,4.94,12.03,12.84
	c15.69,15.13,23.54,22.69,32.19,30.02c12.29,10.4,22.2,17.66,37.56,28.64c32.46,23.18,48.69,34.78,61.74,43.14
	c43.02,27.6,77.75,44.45,86.66,48.72c20.79,9.96,38.84,17.43,52.48,22.73c8.69-2.51,27.1-8.36,39.75-25.62
	c9.72-13.25,15.61-29.74,16.78-45.05c7.07-47.11,0-96.58-30.62-134.26"/>
<path class="st0" d="M-1083.93,1748.62c-54.93,87.12-106.49,174.38-164.94,265.08c-1.25,1.87-2.16,3.74-2.79,5.6"/>
<path class="st0" d="M-1083.93,1748.62"/>
<path class="st0" d="M-871.24,1152.24c14.56-40.39,27.7-99.01-1.87-135.97c-19.99-24.99-54.62-29.05-84.54-27.3
	c-32.31,1.9-68.55,5.8-96.19,24.04c-30.92,20.41-49.51,56.9-58.91,91.77"/>
<path class="st0" d="M-706.61,1601.66c-5.21-19.02-19.34-33.15-31.12-47.29c-98.93-94.22-188.44-228.48-146.58-366.37"/>
<path class="st0" d="M-891.56,1692.07c48.95,33.05,126.42,45.79,170.97-1.58c13.33-14.17,21.88-32.88,21.03-52.57"/>
<path class="st0" d="M-1131.88,1258.06c-0.86,63.13,12.09,126.19,36.82,184.33c22.92,53.89,55.89,102.98,95.55,146.18
	c24.06,26.22,47.35,53.59,73.71,77.6"/>
<path class="st0" d="M-971.97,1679.36"/>
<path class="st0" d="M-642.47,1583.02c-21.48,6.28-42.97,12.56-64.45,18.84"/>
<path class="st0" d="M-870.02,1183.61c-4.81,1.36-9.62,2.71-14.43,4.07"/>
<path class="st0" d="M-641.91,1117c-76.98,22.81-152.35,44.01-228.95,66.87"/>
<path class="st0" d="M-641.22,1582.59c0.98-0.3,2.03-0.53,3-0.58c-1.44,0.64-2.53,1.24-4.25,1.01
	c170.91-49.84,335.8-106.38,510.1-158.2c56.53-18.84,91.86-68.31,103.64-127.2c4.9-18.39,9.73-44.67,8.54-76.26
	c-1-26.46-5.92-48.62-10.89-65.07c-2.36-4.71-4.71-9.42-7.07-16.49c-11.78-23.56-25.91-44.75-44.75-63.6
	c-25.91-23.55-54.18-40.04-87.15-54.18c-30.62-11.78-61.24-11.78-91.86-9.42c-25.91,4.71-49.47,9.42-75.38,16.49
	c-71.14,19.4-128.83,35.61-184.78,51.92c0,0-0.03,0.01-0.1,0.03c-48.89,14.51-90.49,27.07-119.73,35.94"/>
<path class="st0" d="M-642.47,1583.02c0.4-0.15,0.82-0.3,1.25-0.44"/>
<path class="st0" d="M-627.98,1592.52"/>
<path class="st0" d="M-441.63,2063.37c3.26,0.89,8.51,1.9,14.94,1.3c6.2-0.58,11.02-2.44,14.03-3.86
	c53.87-43.42,116.85-106.57,171.95-193.15c16.49-25.91,30.62-49.47,42.4-77.73c-17.91-64.92-95.4-76.65-153.59-61.48
	c-7.57,2.26-15.59,4.94-23.94,8.12c-7.64,2.91-14.77,5.93-21.4,8.98c-1.03-0.05-2.3-0.32-3.77-0.63c-1.63-0.34-3.4-0.93-4.58-2.11
	c-70.54-45.07-132.93-90.13-197.42-133.62"/>
<path class="st0" d="M-755.5,2068.67"/>
<path class="st0" d="M-638.83,1085.27c-61.17,14.68-121.25,33.36-181.61,50.97c-16.84,4.91-33.71,9.74-50.63,14.36"/>
<path class="st0" d="M-1084.43,1749.41c65.9-18.92,128.14-37.68,193.74-56.76"/>
<path class="st0" d="M-700.63,1638.61c32.57-9.69,65.05-19.7,97.62-29.42"/>
<text transform="matrix(1 0 0 1 -155.8637 2337.2405)" class="st1 st2">А1</text>
<rect x="-174.83" y="173.98" transform="matrix(-1.836970e-16 1 -1 -1.836970e-16 1015.3746 174.485)" class="st0" width="1190.55" height="841.89"/>
<rect x="669.51" y="1366.3" transform="matrix(6.123234e-17 -1 1 6.123234e-17 -522.462 3052.0261)" class="st0" width="1190.55" height="841.89"/>
<rect x="669.51" y="173.98" transform="matrix(6.123234e-17 -1 1 6.123234e-17 669.8524 1859.7119)" class="st0" width="1190.55" height="841.89"/>
<rect x="-174.83" y="1366.3" transform="matrix(6.123234e-17 -1 1 6.123234e-17 -1366.7993 2207.689)" class="st0" width="1190.55" height="841.89"/>
<path class="st0" d="M159.3,1052.58c12.34-58.09,24.12-114.62,57.09-166.44c9.42-14.13,21.2-21.2,32.41-31.3"/>
<path class="st0" d="M633.5,1034.14c-0.18-32.59-0.18-65.57-9.61-96.19c-4.71-16.49-11.78-32.98-21.2-47.11
	c-11.78-14.13-25.91-23.55-37.69-35.33c4.71-2.36,7.07-4.71,9.42-7.07c68.31-16.49,127.2-58.89,160.17-120.13
	c11.78-23.55,11.78-49.47,14.13-75.38c2.36-9.42,11.78-16.49,14.13-25.91c2.36-23.55-4.71-47.11-23.55-61.24
	c-23.55,2.36-37.69-14.13-51.82-30.62c-16.49-23.55-28.27-44.75-35.33-73.02c-7.07-40.04-2.36-80.09-7.07-120.13
	c-9.42-65.95-58.89-108.35-113.06-141.33c-30.62-16.49-65.95-23.55-98.93-32.98c2.36-44.75-16.49-94.22-61.24-113.06
	c-80.09-11.78-136.62,70.66-148.4,141.33c-2.36,9.42-7.07,16.49-11.78,21.2C86.85,320.82,63.29,490.41,84.49,641.17
	c14.13,87.15,54.18,176.66,143.69,207.28c7.07,2.36,14.13,2.36,20.63,6.39"/>
<path class="st0" d="M1438.23,366.29c-5.8-20.19-11.61-40.39-17.41-60.58"/>
<path class="st0" d="M1012.02,510.1c25.44,81.61,46.64,164.05,65.48,251.21c11.78,40.04,21.2,77.73,35.33,117.77
	c7.07,16.49,11.78,35.33,21.2,51.82c18.84,35.33,40.04,65.95,68.31,94.22c21.2,18.84,47.11,32.98,73.02,42.4
	c68.31,23.55,141.33,16.49,202.57-25.91c44.75-32.98,75.38-77.73,84.8-134.26c14.13-91.86-14.13-174.31-40.04-259.1
	c-2.36-11.78-56.53-200.22-84.46-281.95"/>
<path class="st0" d="M569.03,1989.15c-26.85-16.4-48.56-30.28-63.6-40.04c-35.85-23.27-40.72-27.64-71.84-47.11
	c-18.29-11.44-27.2-16.56-46.88-29.41c-16.88-11.02-30.51-20.45-39.61-26.85c10.38-14.11,1.56,1.01,0,0
	c133.16-181.59,177.76-242.83,191.3-261.73c3.2-4.47,15.77-22.06,33.18-45.33c9.38-12.54,16.95-22.43,20.99-27.69
	c2.42-3.69,4.85-7.39,7.27-11.08"/>
<path class="st0" d="M555.79,2309.93c12.19,4.13,23.91-4.04,32.09-12.22c2.57-2.57,4.94-3.84,12.84-12.03
	c15.13-15.69,22.69-23.54,30.02-32.19c10.4-12.29,17.66-22.2,28.64-37.56c23.18-32.46,34.78-48.69,43.14-61.74
	c27.6-43.02,44.45-77.75,48.72-86.66c9.96-20.79,17.43-38.84,22.73-52.48c-2.51-8.69-8.36-27.1-25.62-39.75
	c-13.25-9.72-29.74-15.61-45.05-16.78c-47.11-7.07-96.58,0-134.26,30.62"/>
<path class="st0" d="M285.1,2142.2c87.12,54.93,174.38,106.49,265.08,164.94c1.87,1.25,3.74,2.16,5.6,2.79"/>
<path class="st0" d="M285.1,2142.2"/>
<path class="st0" d="M400.88,1101.14c14.56-40.39,27.7-99.01-1.87-135.97c-19.99-24.99-54.62-29.05-84.54-27.3
	c-32.31,1.9-68.55,5.8-96.19,24.04c-30.92,20.41-49.51,56.9-58.91,91.77"/>
<path class="st0" d="M1569.22,2036.42c-19.02,5.21-33.15,19.34-47.29,31.12c-94.22,98.93-228.48,188.44-366.37,146.58"/>
<path class="st0" d="M228.56,1949.83c33.05-48.95,45.79-126.42-1.58-170.97c-14.17-13.33-32.88-21.88-52.57-21.03"/>
<path class="st0" d="M1012.02,510.06c63.13,0.86,126.19-12.09,184.33-36.82c53.89-22.92,102.98-55.89,146.18-95.55
	c26.22-24.06,53.59-47.35,77.6-73.71"/>
<path class="st0" d="M1433.32,350.14"/>
<path class="st0" d="M1550.58,1972.28c6.28,21.48,12.56,42.97,18.84,64.45"/>
<path class="st0" d="M1151.17,2199.83c1.36,4.81,2.71,9.62,4.07,14.43"/>
<path class="st0" d="M1084.55,1971.72c22.81,76.98,44.01,152.35,66.87,228.95"/>
<path class="st0" d="M1550.14,1971.03c-0.3-0.98-0.53-2.03-0.58-3c0.64,1.44,1.24,2.53,1.01,4.25
	c-49.84-170.91-106.38-335.8-158.2-510.1c-18.84-56.53-68.31-91.86-127.2-103.64c-18.39-4.9-44.67-9.73-76.26-8.54
	c-26.46,1-48.62,5.92-65.07,10.89c-4.71,2.36-9.42,4.71-16.49,7.07c-23.55,11.78-44.75,25.91-63.6,44.75
	c-23.55,25.91-40.04,54.18-54.18,87.15c-11.78,30.62-11.78,61.24-9.42,91.86c4.71,25.91,9.42,49.47,16.49,75.38
	c19.4,71.14,35.61,128.83,51.92,184.78c0,0,0.01,0.03,0.03,0.1c14.51,48.89,27.07,90.49,35.94,119.73"/>
<path class="st0" d="M119.51,1700.74c-0.15-0.4-0.3-0.82-0.44-1.25"/>
<path class="st0" d="M129.01,1686.25"/>
<path class="st0" d="M599.86,1499.9c0.89-3.26,1.9-8.51,1.3-14.94c-0.58-6.2-2.44-11.02-3.86-14.03
	c-43.42-53.87-106.57-116.85-193.15-171.95c-25.91-16.49-49.47-30.62-77.73-42.4c-64.92,17.91-76.65,95.4-61.48,153.59
	c2.26,7.57,4.94,15.58,8.12,23.94c2.91,7.64,5.93,14.77,8.98,21.4c-0.05,1.03-0.32,2.3-0.63,3.77c-0.34,1.63-0.93,3.4-2.11,4.58
	c-45.07,70.54-90.13,132.93-133.63,197.42"/>
<path class="st0" d="M605.15,1813.77"/>
<path class="st0" d="M633.28,1034.17c-61.17,14.68-121.25,33.36-181.61,50.97c-16.84,4.91-33.71,9.74-50.63,14.36"/>
<path class="st0" d="M285.9,2142.7c-18.92-65.9-37.68-128.14-56.76-193.74"/>
<path class="st0" d="M175.1,1758.9c-9.69-32.57-19.7-65.05-29.42-97.62"/>
<text transform="matrix(1 0 0 1 1569.218 2337.2402)" class="st1 st2">А3</text>
<text transform="matrix(1 0 0 1 1569.2178 1152.2388)" class="st1 st2">А3</text>
<text transform="matrix(1 0 0 1 704.3141 1153.2493)" class="st1 st2">А3</text>
<text transform="matrix(1 0 0 1 722.1093 2338.251)" class="st1 st2">А3</text>
</svg>
